<?xml version="1.0" encoding="UTF-8" standalone="no"?>
<svg
   inkscape:version="1.1.2 (0a00cf5339, 2022-02-04)"
   sodipodi:docname="favicon.svg"
   width="189.49808"
   height="188.92325"
   enable-background="new 0 0 461.963 429.631"
   version="1.1"
   viewBox="0 0 189.49931 188.92368"
   id="svg113"
   inkscape:export-filename="/home/jan/src/jgulan/static/img/favicon.png"
   inkscape:export-xdpi="256.88116"
   inkscape:export-ydpi="256.88116"
   xmlns:inkscape="http://www.inkscape.org/namespaces/inkscape"
   xmlns:sodipodi="http://sodipodi.sourceforge.net/DTD/sodipodi-0.dtd"
   xmlns="http://www.w3.org/2000/svg"
   xmlns:svg="http://www.w3.org/2000/svg"
   xmlns:rdf="http://www.w3.org/1999/02/22-rdf-syntax-ns#"
   xmlns:cc="http://creativecommons.org/ns#"
   xmlns:dc="http://purl.org/dc/elements/1.1/">
  <sodipodi:namedview
     inkscape:current-layer="layer2"
     inkscape:window-maximized="1"
     inkscape:window-y="32"
     inkscape:window-x="0"
     inkscape:cy="141.86294"
     inkscape:cx="7.6121575"
     inkscape:zoom="1.4450568"
     showgrid="false"
     id="namedview59"
     inkscape:window-height="939"
     inkscape:window-width="1920"
     inkscape:pageshadow="2"
     inkscape:pageopacity="0"
     guidetolerance="10"
     gridtolerance="10"
     objecttolerance="10"
     borderopacity="1"
     bordercolor="#666666"
     pagecolor="#242526"
     inkscape:document-rotation="0"
     fit-margin-top="0"
     fit-margin-left="0"
     fit-margin-right="0"
     fit-margin-bottom="0"
     inkscape:pagecheckerboard="0" />
  <metadata
     id="metadata119">
    <rdf:RDF>
      <cc:Work
         rdf:about="">
        <dc:format>image/svg+xml</dc:format>
        <dc:type
           rdf:resource="http://purl.org/dc/dcmitype/StillImage" />
      </cc:Work>
    </rdf:RDF>
  </metadata>
  <defs
     id="defs117">
    <clipPath
       clipPathUnits="userSpaceOnUse"
       id="clipPath1175">
      <ellipse
         style="fill:none;fill-rule:evenodd;stroke:#000000;stroke-width:0.790126;stroke-opacity:0.972376"
         id="circle1177"
         cx="-283.26035"
         cy="203.70343"
         rx="95.24482"
         ry="94.636368"
         transform="scale(-1,1)" />
    </clipPath>
    <clipPath
       clipPathUnits="userSpaceOnUse"
       id="clipPath1175-3">
      <ellipse
         style="fill:none;fill-rule:evenodd;stroke:#000000;stroke-width:0.790126;stroke-opacity:0.972376"
         id="circle1177-6"
         cx="-283.26035"
         cy="203.70343"
         rx="95.24482"
         ry="94.636368"
         transform="scale(-1,1)" />
    </clipPath>
  </defs>
  <linearGradient
     id="a"
     x1="51.825001"
     x2="261.82001"
     y1="371.81"
     y2="8.0965004"
     gradientTransform="matrix(-0.0014,-1,-1,0.0014,425.29452,380.53)"
     gradientUnits="userSpaceOnUse">
    <stop
       stop-opacity="0"
       offset="0"
       id="stop8" />
    <stop
       stop-color="#49494B"
       stop-opacity=".0474"
       offset=".0117"
       id="stop10" />
    <stop
       stop-color="#6B6D6F"
       stop-opacity=".1114"
       offset=".0275"
       id="stop12" />
    <stop
       stop-color="#86888A"
       stop-opacity=".1818"
       offset=".0449"
       id="stop14" />
    <stop
       stop-color="#9C9EA1"
       stop-opacity=".258"
       offset=".0637"
       id="stop16" />
    <stop
       stop-color="#AFB1B4"
       stop-opacity=".342"
       offset=".0845"
       id="stop18" />
    <stop
       stop-color="#BEC0C2"
       stop-opacity=".4369"
       offset=".1079"
       id="stop20" />
    <stop
       stop-color="#C9CBCD"
       stop-opacity=".549"
       offset=".1356"
       id="stop22" />
    <stop
       stop-color="#CFD1D3"
       stop-opacity=".6949"
       offset=".1716"
       id="stop24" />
    <stop
       stop-color="#D1D3D4"
       offset=".2469"
       id="stop26" />
    <stop
       stop-color="#DBD4B8"
       stop-opacity=".8939"
       offset=".3268"
       id="stop28" />
    <stop
       stop-color="#E4D69D"
       stop-opacity=".7758"
       offset=".4157"
       id="stop30" />
    <stop
       stop-color="#EBD883"
       stop-opacity=".6542"
       offset=".5073"
       id="stop32" />
    <stop
       stop-color="#F1D96B"
       stop-opacity=".531"
       offset=".6001"
       id="stop34" />
    <stop
       stop-color="#F6DB53"
       stop-opacity=".4057"
       offset=".6944"
       id="stop36" />
    <stop
       stop-color="#FADC3F"
       stop-opacity=".2776"
       offset=".7909"
       id="stop38" />
    <stop
       stop-color="#FDDE31"
       stop-opacity=".1448"
       offset=".8909"
       id="stop40" />
    <stop
       stop-color="#FFDF2C"
       stop-opacity="0"
       offset="1"
       id="stop42" />
  </linearGradient>
  <circle
     style="fill:none;fill-opacity:1;fill-rule:evenodd;stroke:#059256;stroke-width:3.08182;stroke-miterlimit:4;stroke-dasharray:none;stroke-opacity:1"
     id="path1441"
     cx="95.028252"
     cy="94.378204"
     rx="93.814278"
     ry="93.887611"
     inkscape:export-filename="/home/jan/src/jgulan/static/img/path1441.png"
     inkscape:export-xdpi="257.1481"
     inkscape:export-ydpi="257.1481" />
  <g
     inkscape:groupmode="layer"
     id="layer1"
     inkscape:label="Layer 1">
    <ellipse
       style="fill:#242526;fill-opacity:1;fill-rule:evenodd;stroke:#ffffff;stroke-width:3.45133;stroke-miterlimit:4;stroke-dasharray:none;stroke-opacity:0.99215698"
       id="ellipse1039"
       cx="94.199112"
       cy="96.583359"
       inkscape:export-filename="/home/jan/src/jgulan/static/img/path1441.png"
       inkscape:export-xdpi="257.1481"
       inkscape:export-ydpi="257.1481"
       rx="93.846611"
       ry="93.846344" />
  </g>
  <g
     inkscape:groupmode="layer"
     id="layer2"
     inkscape:label="Layer 2">
    <g
       style="fill:none;fill-opacity:1;stroke:#feffff;stroke-opacity:1"
       fill="none"
       stroke="#000000"
       id="g109"
       transform="matrix(-0.99341949,0,0,1.0005881,375.44226,-106.89529)"
       clip-path="url(#clipPath1175-3)"
       inkscape:export-filename="/home/jan/src/jgulan/static/img/path1441.png"
       inkscape:export-xdpi="257.1481"
       inkscape:export-ydpi="257.1481">
      <path
         style="fill:none;fill-opacity:1;stroke:#feffff;stroke-opacity:1"
         d="m 214.27,138.07 c 0,0 -0.072,-0.218 -6.365,6.498 -9.234,9.855 -16.17,28.355 -17.536,34.386 -3.406,15.038 -2.285,20.116 -1.734,29.331 0.551,9.215 3.351,24.262 8.04,32.542 4.688,8.28 20.464,22.405 30.985,27.873 10.522,5.468 29.135,7.938 35.34,7.759 6.206,-0.179 18.061,-5.427 30.294,-14.248 12.235,-8.82 18.459,-22.726 19.416,-34.948 0.958,-12.22 -3.544,-19.937 -5.044,-22.759 -1.5,-2.822 -6.566,-10.727 -9.759,-13.552 -3.192,-2.825 -12.024,-6.599 -16.158,-8.672 -4.134,-2.074 -15.418,-0.774 -19.179,-0.403 -3.76,0.371 -9.407,4.312 -12.797,7.503 -3.39,3.192 -6.781,8.64 -9.047,15.406 -2.266,6.766 -0.957,11.657 -0.021,14.667 0.936,3.01 2.812,5.457 5.815,9.598 3.003,4.141 10.521,6.784 15.784,7.92 5.264,1.136 12.417,-4.495 15.242,-7.124 2.824,-2.628 5.092,-10.899 4.531,-13.156 -0.56,-2.257 -4.325,-4.827 -5.935,-6.981 -1.61,-2.153 -10.211,-2.164 -12.901,-1.093 -2.689,1.071 -1.083,5.912 0.525,8.602 1.609,2.69 4.303,-1.606 4.303,-1.606"
         stroke-width="3"
         id="path47" />
      <path
         style="fill:none;fill-opacity:1;stroke:#feffff;stroke-opacity:1"
         d="m 218.79,396.73 c 0,0 32.127,-4.327 44.334,-20.213 12.208,-15.885 20.686,-22.482 25.671,-43.128 4.985,-20.646 -0.167,-28.294 -3.051,-33.875 -2.883,-5.581 -7.62,-14.674 -12.78,-17.16 -5.161,-2.486 -10.733,-5.178 -12.385,-5.594 -1.652,-0.416 -1.652,-0.416 -1.652,-0.416"
         stroke-width="2"
         id="path49" />
      <path
         style="fill:none;fill-opacity:1;stroke:#feffff;stroke-opacity:1"
         d="m 337.5,360.1 c 0,0 3.1,-2.061 8.898,-12.792 5.798,-10.731 8.7,-17.336 8.517,-32.207 -0.188,-14.87 -2.04,-27.99 -5.333,-34.811 -3.293,-6.82 -11.854,-13.557 -18.031,-16.975 -10.678,-5.91 -24.269,-3.424 -27.988,-2.604 -3.719,0.821 -13.016,3.905 -16.324,5.759 -3.307,1.854 -8.476,5.565 -10.128,5.976"
         stroke-width="2"
         id="path51" />
      <path
         style="fill:none;fill-opacity:1;stroke:#feffff;stroke-opacity:1"
         d="m 385.29,302.34 c 0,0 2.285,-9.497 -0.172,-25.403 -2.455,-15.906 -12.146,-28.519 -15.238,-32.034 -3.093,-3.516 -12.642,-11.521 -24.467,-15.652 -4.236,-1.48 -9.117,-1.001 -15.107,-0.39 -5.989,0.611 -11.423,3.785 -16.181,9.355 -4.759,5.57 -7.654,8.663 -7.654,8.663"
         stroke-width="2"
         id="path53" />
      <path
         style="fill:none;fill-opacity:1;stroke:#feffff;stroke-opacity:1"
         d="m 401.4,251.44 c 0,0 0.498,-6.489 -2.176,-14.135 -2.676,-7.645 -10.818,-17.685 -18.039,-23.478 -7.219,-5.792 -12.696,-11.993 -27.244,-15.699 -14.301,-3.642 -18.889,-2.177 -25.244,0.333 -5.863,2.316 -9.766,3.828 -12.252,10.02 -2.488,6.192 -4.145,10.113 -3.939,10.733"
         stroke-width="2"
         id="path55" />
      <path
         style="fill:none;fill-opacity:1;stroke:#feffff;stroke-opacity:1"
         d="m 394.74,194.13 c 0,0 -6.391,-9.096 -9.689,-11.786 -3.303,-2.689 -11.469,-6.564 -20.759,-9.262 -9.293,-2.697 -12.892,-5.729 -27.265,-3.907 -8.229,1.043 -19.713,7.291 -23.227,9.971 -3.515,2.681 -5.582,3.917 -7.449,9.077 -1.865,5.16 -2.075,7.226 -1.458,9.705 l 0.616,2.48"
         stroke-width="2"
         id="path57" />
      <path
         style="fill:none;fill-opacity:1;stroke:#feffff;stroke-opacity:1"
         d="m 364.65,147.21 c 0,0 -17.136,-5.808 -27.876,-4.79 -10.741,1.018 -18.799,2.865 -23.344,4.097 -4.546,1.233 -8.689,2.685 -15.091,10.099 -6.413,7.427 -6.623,9.905 -7.663,15.272 -1.037,5.353 -0.423,6.402 1.224,10.948 1.646,4.546 2.677,6.2 2.677,6.2"
         stroke-width="1.5"
         id="path59" />
      <path
         style="fill:none;fill-opacity:1;stroke:#feffff;stroke-opacity:1"
         d="m 321.56,119.03 c 0,0 -20.903,5.373 -26.279,9.081 -5.375,3.71 -12.407,10.103 -16.961,17.738 -4.554,7.635 -7.044,15.273 -7.255,18.578 -0.21,3.304 0.609,7.849 1.846,9.709 1.236,1.861 2.268,3.309 3.917,4.756 1.65,1.447 4.922,3.392 4.922,3.392"
         stroke-width="1.5"
         id="path61" />
      <path
         style="fill:none;fill-opacity:1;stroke:#feffff;stroke-opacity:1"
         d="m 280.02,111.98 c 0,0 -6.202,3.295 -9.718,6.594 -3.515,3.301 -7.031,6.807 -11.998,14.234 -4.968,7.429 -5.176,8.668 -5.176,8.875 0,0.206 -2.486,5.779 -3.114,11.767 -0.647,6.162 -0.013,9.707 1.84,14.047 1.852,4.339 2.056,5.786 4.324,8.68 2.268,2.895 2.886,3.722 5.777,4.346 2.891,0.624 3.717,0.831 3.717,0.831"
         id="path63" />
      <path
         style="fill:none;fill-opacity:1;stroke:#feffff;stroke-opacity:1"
         d="m 241.35,121.29 c 0,0 -7.982,8.374 -10.931,16.02 -2.89,7.497 -3.913,15.628 -3.51,22.651 0.403,7.022 3.418,13.116 6.551,17.834 2.929,4.411 6.394,6.204 8.87,7.447 2.476,1.243 3.921,1.864 8.053,1.043 4.132,-0.821 4.132,-0.82 4.132,-0.82"
         id="path65" />
      <path
         style="fill:none;fill-opacity:1;stroke:#feffff;stroke-opacity:1"
         d="m 244.67,195.38 c 0,0 -2.993,3.758 -7.858,3.197 -4.866,-0.56 -15.588,-5.331 -21.436,-15.184 -5.849,-9.853 -5.84,-15.161 -6.495,-22.13 -0.655,-6.97 -0.426,-11.393 1.349,-15.815 1.776,-4.422 2.87694,-7.16601 2.87694,-7.16601"
         id="path67" />
      <path
         style="fill:none;fill-opacity:1;stroke:#feffff;stroke-opacity:1"
         d="m 240.73,204.79 c 0,0 -2.719,5.626 -6.925,7.391 -4.206,1.765 -14.269,0.202 -19.022,-2.018 -4.752,-2.218 -9.837,-5.212 -14.471,-12.408 -4.636,-7.196 -6.51,-11.955 -7.941,-15.939 -1.433,-3.984 -1.764,-4.538 -1.764,-4.538"
         id="path69" />
      <path
         style="fill:none;fill-opacity:1;stroke:#feffff;stroke-opacity:1"
         d="m 239.99,218.05 c 0,0 0.331,0.774 -0.669,3.98 -1,3.207 -4.656,7.404 -8.418,7.952 -3.761,0.549 -6.969,1.207 -13.382,-0.24 -6.414,-1.447 -12.273,-3.446 -19.343,-9.318 -7.071,-5.873 -9.39,-8.531 -9.39,-8.531"
         id="path71" />
      <path
         style="fill:none;fill-opacity:1;stroke:#feffff;stroke-opacity:1"
         d="m 242.62,224.32 c 0,0 4.597,5.901 1.273,11.057 -3.323,5.154 -9.965,11.224 -16.414,11.952 -6.45,0.728 -15.476,-0.758 -20.632,-2.424 -5.156,-1.666 -10.17,-4.072 -10.17,-4.072"
         id="path73" />
      <path
         style="fill:none;fill-opacity:1;stroke:#feffff;stroke-opacity:1"
         d="m 250.71,232.99 c 0,0 1.837,4.24 2.018,6.819 0.181,2.58 -1.117,8.659 -6.651,12.52 -5.532,3.861 -14.198,8.086 -18.989,9.185 -4.792,1.099 -8.293,1.646 -8.293,1.646"
         id="path75" />
      <path
         style="fill:none;fill-opacity:1;stroke:#feffff;stroke-opacity:1"
         d="m 263.05,237.24 c 0,0 1.655,2.213 1.648,7.003 -0.007,4.791 -1.306,11.606 -4.813,16.207 -3.508,4.601 -12.359,10.484 -14.939,11.77 l -2.582,1.286"
         id="path77" />
      <path
         style="fill:none;fill-opacity:1;stroke:#feffff;stroke-opacity:1"
         d="m 274.47,273.87 c 4.465,-0.235 6.767,-0.586 15.234,-0.161 8.468,0.425 15.071,3.945 21.26,9.53 6.188,5.584 9.684,15.503 11.534,21.909 1.851,6.405 0.599,15.078 -0.652,23.338 -1.249,8.258 -7.466,20.642 -13.261,30.754 -5.797,10.111 -9.936,16.095 -17.793,22.073 -7.856,5.978 -35.337,13.265 -35.337,13.265"
         stroke-width="2"
         id="path79" />
      <path
         style="fill:none;fill-opacity:1;stroke:#feffff;stroke-opacity:1"
         d="M 265.58,275.94"
         id="path81" />
      <path
         style="fill:none;fill-opacity:1;stroke:#feffff;stroke-opacity:1"
         d="m 276.32,231.37 c 0,0 0.185,-0.553 2.58,-0.549 2.395,0.004 5.341,1.112 6.26,2.772 0.919,1.659 3.864,4.058 4.591,10.323 0.728,6.266 -0.015,10.319 -0.388,14.002 -0.374,3.684 -1.486,8.105 -1.486,8.105"
         id="path83" />
      <path
         style="fill:none;fill-opacity:1;stroke:#feffff;stroke-opacity:1"
         d="m 281.12,223.08 c 0,0 2.582,-0.917 5.896,0.377 3.315,1.294 6.262,2.035 8.836,5.539 2.575,3.504 5.147,8.667 6.064,11.248 0.918,2.58 2.199,9.03 2.197,9.952"
         id="path85" />
      <path
         style="fill:none;fill-opacity:1;stroke:#feffff;stroke-opacity:1"
         d="m 282.06,215.53 c 0,0 1.844,-1.471 5.344,-1.098 3.5,0.374 8.474,0.75 11.419,2.78 2.945,2.031 4.971,3.139 7.729,6.091 2.76,2.953 4.967,5.167 4.965,5.718 0,0.554 0.736,1.844 0.736,1.844"
         id="path87" />
      <path
         style="fill:none;fill-opacity:1;stroke:#feffff;stroke-opacity:1"
         d="m 277.46,211.1 c 0,0 2.216,-3.498 4.613,-4.416 2.396,-0.918 8.112,-3.857 17.871,0.394 9.76,4.251 11.048,5.174 11.048,5.174"
         id="path89" />
      <path
         style="fill:none;fill-opacity:1;stroke:#feffff;stroke-opacity:1"
         d="m 272.67,207.96 c 0,0 0.559,-4.789 1.851,-6.445 1.292,-1.657 3.875,-4.233 7.194,-5.886 3.319,-1.653 4.424,-2.572 8.847,-2.75 4.422,-0.179 8.292,-0.542 8.292,-0.542"
         id="path91" />
      <path
         style="fill:none;fill-opacity:1;stroke:#feffff;stroke-opacity:1"
         d="m 262.54,209.24 c 0,0 -3.13,-0.925 -4.227,-7.008 -1.098,-6.081 -0.724,-9.212 2.044,-13.078 2.77,-3.866 4.615,-5.889 6.09,-6.624 1.475,-0.736 2.766,-1.102 2.766,-1.102"
         id="path93" />
      <path
         style="fill:none;fill-opacity:1;stroke:#feffff;stroke-opacity:1"
         d="m 261.8,211.08 c 0,0 0.181,1.659 -3.686,0.363 -3.867,-1.296 -5.891,-3.325 -7.545,-6.276 -1.654,-2.95 -2.388,-4.977 -2.013,-8.846 0.373,-3.87 0.928,-5.158 2.035,-6.629 1.108,-1.473 1.478,-2.208 1.478,-2.208"
         id="path95" />
      <path
         style="fill:none;fill-opacity:1;stroke:#feffff;stroke-opacity:1"
         d="m 262.16,214.77 c 0,0 -1.291,1.103 -4.055,1.836 -2.765,0.734 -6.632,-0.93 -9.578,-2.776 -2.944,-1.848 -4.415,-5.166 -5.517,-7.009 -1.103,-1.844 -1.285,-3.687 -1.285,-3.687"
         id="path97" />
      <path
         style="fill:none;fill-opacity:1;stroke:#feffff;stroke-opacity:1"
         d="m 263.08,216.79 c 0,0 -0.002,2.21 -3.692,5.891 -3.69,3.679 -6.086,3.86 -9.218,3.487 -3.131,-0.373 -5.341,-0.93 -6.078,-1.667 -0.736,-0.737 -1.472,-0.923 -1.472,-0.923"
         id="path99" />
      <path
         style="fill:none;fill-opacity:1;stroke:#feffff;stroke-opacity:1"
         d="m 265.29,217.9 c 0,0 2.392,2.029 2.018,5.345 -0.373,3.316 -1.668,7.367 -2.775,8.655 -1.107,1.288 -2.214,2.576 -3.321,3.497 l -1.107,0.919"
         id="path101" />
      <path
         style="fill:none;fill-opacity:1;stroke:#feffff;stroke-opacity:1"
         d="m 266.68,217.24 c 0,0 0.682,-0.204 1.281,-0.272 0.599,-0.069 1.382,-0.068 2.119,0.209 1.474,0.555 3.868,1.295 5.154,3.877 1.286,2.58 2.389,4.793 2.017,6.635 -0.371,1.842 -0.924,2.946 -0.924,2.946"
         id="path103" />
      <path
         style="fill:none;fill-opacity:1;stroke:#feffff;stroke-opacity:1"
         d="m 268.08,215.57 c 0.923,-1.289 2.195,-2.451 3.117,-3.187 0.923,-0.734 1.475,-1.471 2.766,-1.47 1.29,0.002 2.763,0.373 2.763,0.373 l 1.29,0.555"
         stroke-width="2"
         id="path105" />
      <path
         style="fill:none;fill-opacity:1;stroke:#feffff;stroke-opacity:1"
         d="m 268.18,207.47 c 0,0 -1.512,-1.517 -1.678,-3.705 -0.165,-2.188 1.02,-7.404 2.2,-9.085 1.18,-1.681 5.057,-5.379 8.257,-7.057 3.2,-1.678 7.41,-3.355 7.41,-3.355"
         id="path107" />
    </g>
    <ellipse
       style="fill:#000000;fill-opacity:0;fill-rule:evenodd;stroke:#f7fffb;stroke-width:3.45133;stroke-miterlimit:4;stroke-dasharray:none;stroke-opacity:0.99215698"
       id="path899"
       cx="94.12085"
       cy="96.441475"
       inkscape:export-filename="/home/jan/src/jgulan/static/img/path1441.png"
       inkscape:export-xdpi="257.1481"
       inkscape:export-ydpi="257.1481"
       rx="93.846611"
       ry="93.846344" />
    <rect
       style="fill:#000000;fill-opacity:0;stroke:none;stroke-width:3.57302;stroke-miterlimit:4;stroke-dasharray:none;stroke-opacity:0.992157"
       id="rect2839"
       width="190.53473"
       height="190.67137"
       x="-1.6497663"
       y="1.5906577" />
  </g>
</svg>
